<?xml version="1.0" encoding="UTF-8"?>
<!--Generator: Apple Native CoreSVG 341-->
<!DOCTYPE svg
PUBLIC "-//W3C//DTD SVG 1.1//EN"
       "http://www.w3.org/Graphics/SVG/1.1/DTD/svg11.dtd">
<svg version="1.1" xmlns="http://www.w3.org/2000/svg" xmlns:xlink="http://www.w3.org/1999/xlink" viewBox="0 0 258.423 329.224">
 <g>
  <rect height="329.224" opacity="0" width="258.423" x="0" y="0"/>
  <path d="M188.721 75.4395C165.161 75.4395 146.118 89.7217 133.789 89.7217C120.728 89.7217 103.638 75.4395 83.1299 75.4395C44.3115 75.4395 4.88281 108.398 4.88281 168.945C4.88281 206.787 19.4092 246.582 37.4756 272.217C52.9785 293.945 66.4062 311.523 85.9375 311.523C105.225 311.523 113.647 299.072 137.573 299.072C161.987 299.072 167.358 311.523 188.721 311.523C209.839 311.523 223.877 292.236 237.183 273.071C252.075 251.221 258.301 229.858 258.423 228.882C257.202 228.394 216.797 211.914 216.797 165.771C216.797 125.732 248.657 107.788 250.366 106.445C229.492 76.2939 197.51 75.4395 188.721 75.4395ZM177.612 49.9268C187.256 38.208 194.092 22.3389 194.092 6.22559C194.092 4.02832 193.97 1.83105 193.481 0C177.856 0.610352 158.936 10.498 147.705 23.8037C138.794 33.8135 130.615 49.9268 130.615 66.04C130.615 68.3594 130.981 70.8008 131.226 71.6553C132.202 71.7773 133.789 72.0215 135.376 72.0215C149.536 72.0215 167.236 62.6221 177.612 49.9268Z" fill="white"/>
 </g>
</svg>
