<?xml version="1.0" encoding="UTF-8"?>
<!--Generator: Apple Native CoreSVG 341-->
<!DOCTYPE svg
PUBLIC "-//W3C//DTD SVG 1.1//EN"
       "http://www.w3.org/Graphics/SVG/1.1/DTD/svg11.dtd">
<svg version="1.1" xmlns="http://www.w3.org/2000/svg" xmlns:xlink="http://www.w3.org/1999/xlink" viewBox="0 0 162.083 343.532">
 <g>
  <rect height="343.532" opacity="0" width="162.083" x="0" y="0"/>
  <path d="M110.399 316.969C101.366 316.236 90.1357 318.8 82.5673 323.439C79.3935 325.147 79.0273 327.955 81.7128 330.397C88.7929 336.866 99.5351 341.627 108.568 342.237C118.09 343.458 129.442 340.528 137.133 334.791C139.452 333.082 139.696 330.641 137.377 328.565C130.663 322.218 119.799 317.579 110.399 316.969ZM143.725 263.746C138.842 271.559 135.912 282.789 136.4 291.7C136.889 301.1 141.283 311.964 147.387 318.8C149.34 321.119 151.659 321.119 153.612 318.678C159.594 311.476 162.89 300.123 161.913 290.357C161.303 281.324 156.786 270.582 150.56 263.258C148.241 260.572 145.678 260.816 143.725 263.746ZM65.9658 274.366C57.2988 271.192 45.58 270.948 36.913 273.512C33.7392 274.488 32.8847 277.052 34.5937 279.981C39.7206 288.038 48.8759 295.362 57.5429 298.414C66.332 301.954 78.1728 301.954 87.0839 298.292C89.7695 297.315 90.5019 294.996 89.037 292.433C83.9101 284.376 74.7548 277.296 65.9658 274.366ZM111.62 231.397C104.906 237.501 99.1689 247.633 97.4599 256.422C95.5068 265.821 96.8495 277.54 101 285.475C102.221 288.16 104.662 288.648 106.981 286.939C114.55 281.446 120.531 271.314 122.24 261.671C123.949 252.638 122.362 241.041 118.212 232.618C116.869 229.322 114.184 228.834 111.62 231.397ZM0.169858 212.965C1.51263 222.12 7.0058 232.74 13.5976 239.332C20.1894 246.168 30.9316 250.807 40.5751 251.051C43.5048 251.295 45.0917 249.342 44.7255 246.412C43.1386 236.891 37.6454 226.637 30.9316 220.655C24.3398 214.308 13.9638 209.303 4.80853 208.082C1.51263 207.716-0.440493 209.547 0.169858 212.965ZM90.1357 199.781C81.7128 202.589 72.4355 209.547 66.9423 216.993C61.4492 224.317 58.0312 235.426 58.5195 245.069C58.6415 247.999 60.5947 249.464 63.5244 248.854C72.9238 246.656 82.6894 239.942 87.6943 232.008C92.9433 223.951 96.2392 212.721 95.7509 203.688C95.7509 200.147 93.5536 198.561 90.1357 199.781ZM64.0126 162.794C56.6884 168.653 50.5849 178.785 48.7538 187.94C48.1435 190.626 49.7304 192.701 52.538 192.823C62.1816 193.067 73.29 188.917 80.248 182.569C87.206 176.588 93.4316 166.456 95.5068 157.179C95.9951 154.005 94.164 151.93 90.9902 152.052C81.5908 152.784 70.8486 156.935 64.0126 162.794ZM0.413999 142.042C-0.684634 150.953 2.00091 162.428 6.88373 170.729C11.6445 179.151 20.7997 186.476 29.7109 189.039C32.5185 189.894 34.7158 188.429 35.082 185.499C36.0585 176.588 33.4951 165.113 28.3681 156.935C23.3632 149.122 14.4521 141.676 6.27337 138.502C3.09955 137.037 0.78021 138.38 0.413999 142.042ZM72.5576 109.938C63.6464 112.989 54.3691 120.191 49.4863 128.126C47.8994 130.567 48.7538 133.009 51.3173 134.23C60.1064 137.892 71.9472 137.892 80.8583 134.107C90.0136 130.567 99.1689 123.121 103.808 115.309C105.517 112.501 104.54 110.182 101.366 109.083C92.5771 106.52 80.9804 106.764 72.5576 109.938ZM19.9452 68.4336C15.7949 77.1006 14.2079 88.8194 16.039 97.7305C17.6259 107.13 23.7294 117.262 31.4199 122.755C33.6171 124.586 36.0585 123.854 37.5234 121.29C41.6738 112.989 43.0165 101.515 40.9413 92.3594C38.9882 83.3262 33.2509 73.1944 26.6591 67.0909C24.0956 65.0157 21.4101 65.5039 19.9452 68.4336ZM101 64.4053C91.6005 66.2364 81.5908 72.2178 75.8535 79.2979C74.0224 81.4951 74.5107 83.8145 76.9521 85.4014C85.0087 90.4063 96.7275 91.8711 106.005 89.4297C115.282 87.3545 125.414 81.251 131.395 74.293C133.593 71.7295 132.982 69.044 129.931 67.7012C121.63 64.0391 110.155 62.6963 101 64.4053ZM54.7353 15.9434C49.4863 23.878 46.3124 35.2305 46.9228 44.2637C47.0449 53.6631 51.8056 64.5274 58.5195 71.4854C60.8388 73.5606 63.2802 73.3164 64.9892 70.875C70.1161 62.8184 73.1679 51.4659 72.4355 42.5547C71.8251 33.5215 67.4306 22.9014 61.5712 15.5772C59.2519 13.0137 56.5663 13.2578 54.7353 15.9434ZM135.668 0.0742493C126.513 1.53909 116.259 6.91019 109.789 13.3799C103.197 19.8496 98.0702 30.4698 96.9716 39.625C96.7275 42.5547 98.3144 44.2637 101.244 44.1416C110.766 43.6534 121.386 38.5264 127.855 31.3242C134.081 24.8545 139.208 14.2344 140.673 4.95706C141.039 1.53909 139.208-0.414032 135.668 0.0742493Z" fill="white"/>
 </g>
</svg>
