<?xml version="1.0" encoding="UTF-8"?>
<!--Generator: Apple Native CoreSVG 341-->
<!DOCTYPE svg
PUBLIC "-//W3C//DTD SVG 1.1//EN"
       "http://www.w3.org/Graphics/SVG/1.1/DTD/svg11.dtd">
<svg version="1.1" xmlns="http://www.w3.org/2000/svg" xmlns:xlink="http://www.w3.org/1999/xlink" viewBox="0 0 162.083 343.532">
 <g>
  <rect height="343.532" opacity="0" width="162.083" x="0" y="0"/>
  <path d="M51.6835 316.969C42.2841 317.579 31.4199 322.218 24.706 328.565C22.3867 330.641 22.6308 333.082 24.9501 334.791C32.6406 340.528 43.871 343.458 53.5146 342.237C62.5478 341.627 73.29 336.866 80.3701 330.397C83.0556 327.955 82.6894 325.147 79.5156 323.439C71.9472 318.8 60.7167 316.236 51.6835 316.969ZM18.3583 263.746C16.4052 260.816 13.8417 260.572 11.5224 263.258C5.29681 270.582 0.78021 281.324 0.169858 290.357C-0.806704 300.123 2.48919 311.476 8.47064 318.678C10.4238 321.119 12.7431 321.119 14.6962 318.8C20.7997 311.964 25.1943 301.1 25.6826 291.7C26.1708 282.789 23.2411 271.559 18.3583 263.746ZM96.1171 274.366C87.3281 277.296 78.1728 284.376 73.0458 292.433C71.581 294.996 72.1913 297.315 74.999 298.292C83.9101 301.954 95.7509 301.954 104.54 298.414C113.207 295.362 122.362 288.038 127.489 279.981C129.198 277.052 128.344 274.488 125.17 273.512C116.503 270.948 104.784 271.192 96.1171 274.366ZM50.4628 231.397C47.8994 228.834 45.2138 229.322 43.871 232.618C39.7206 241.041 38.0117 252.638 39.8427 261.671C41.4296 271.314 47.5331 281.446 55.1015 286.939C57.4208 288.648 59.8622 288.16 61.0829 285.475C65.2333 277.54 66.5761 265.821 64.623 256.422C62.914 247.633 57.1767 237.501 50.4628 231.397ZM161.913 212.965C162.523 209.547 160.57 207.716 157.274 208.082C148.119 209.303 137.743 214.308 131.151 220.655C124.437 226.637 118.944 236.891 117.357 246.412C116.991 249.342 118.578 251.295 121.508 251.051C131.151 250.807 141.893 246.168 148.485 239.332C155.077 232.74 160.57 222.12 161.913 212.965ZM71.9472 199.781C68.5292 198.561 66.332 200.147 66.332 203.688C65.8437 212.721 69.1396 223.951 74.3886 232.008C79.3935 239.942 89.1591 246.656 98.5585 248.854C101.488 249.464 103.441 247.999 103.563 245.069C104.052 235.426 100.634 224.317 95.1406 216.993C89.6474 209.547 80.3701 202.589 71.9472 199.781ZM98.0702 162.794C91.2343 156.935 80.4921 152.784 71.0927 152.052C67.9189 151.93 66.0878 154.005 66.5761 157.179C68.6513 166.456 74.8769 176.588 81.8349 182.569C88.7929 188.917 99.9013 193.067 109.545 192.823C112.352 192.701 113.939 190.626 113.329 187.94C111.498 178.785 105.394 168.653 98.0702 162.794ZM161.669 142.042C161.303 138.38 158.983 137.037 155.81 138.502C147.631 141.676 138.72 149.122 133.715 156.935C128.588 165.113 126.024 176.588 127.001 185.499C127.367 188.429 129.564 189.894 132.372 189.039C141.283 186.476 150.438 179.151 155.199 170.729C160.082 162.428 162.768 150.953 161.669 142.042ZM89.5253 109.938C81.1025 106.764 69.5058 106.52 60.7167 109.083C57.5429 110.182 56.5663 112.501 58.2753 115.309C62.914 123.121 72.0693 130.567 81.2245 134.107C90.1357 137.892 101.976 137.892 110.766 134.23C113.329 133.009 114.184 130.567 112.597 128.126C107.714 120.191 98.4365 112.989 89.5253 109.938ZM142.138 68.4336C140.673 65.5039 137.987 65.0157 135.424 67.0909C128.832 73.1944 123.095 83.3262 121.142 92.3594C119.066 101.515 120.409 112.989 124.56 121.29C126.024 123.854 128.466 124.586 130.663 122.755C138.353 117.262 144.457 107.13 146.044 97.7305C147.875 88.8194 146.288 77.1006 142.138 68.4336ZM61.0829 64.4053C51.9277 62.6963 40.4531 64.0391 32.1523 67.7012C29.1005 69.044 28.4902 71.7295 30.6874 74.293C36.6689 81.251 46.8007 87.3545 56.0781 89.4297C65.3554 91.8711 77.0742 90.4063 85.1308 85.4014C87.5722 83.8145 88.0605 81.4951 86.2294 79.2979C80.4921 72.2178 70.4824 66.2364 61.0829 64.4053ZM107.348 15.9434C105.517 13.2578 102.831 13.0137 100.512 15.5772C94.6523 22.9014 90.2577 33.5215 89.6474 42.5547C88.915 51.4659 91.9667 62.8184 97.0937 70.875C98.8027 73.3164 101.244 73.5606 103.441 71.4854C110.277 64.5274 114.916 53.6631 115.16 44.2637C115.77 35.2305 112.597 23.878 107.348 15.9434ZM26.415 0.0742493C22.8749-0.414032 21.0439 1.53909 21.4101 4.95706C22.8749 14.2344 28.0019 24.8545 34.2275 31.3242C40.6972 38.5264 51.3173 43.6534 60.8388 44.1416C63.7685 44.2637 65.3554 42.5547 65.1113 39.625C64.0126 30.4698 58.8857 19.8496 52.2939 13.3799C45.8242 6.91019 35.5702 1.53909 26.415 0.0742493Z" fill="white"/>
 </g>
</svg>
